<svg width="80" height="82" viewBox="0 0 80 82" fill="none" xmlns="http://www.w3.org/2000/svg" xmlns:xlink="http://www.w3.org/1999/xlink">
<g opacity="0.3">
<rect  x="15.667" y="17.667" width="46.667" height="46.667" transform="rotate(0 15.667 17.667)" fill="#FDF1FD"/>
</g>
<path d="M62.333,11L15.667,11C12,11 9,14 9,17.667L9,64.333C9,68 12,71 15.667,71L62.333,71C66,71 69,68 69,64.333L69,17.667C69,14 66,11 62.333,11ZM62.333,64.333L15.667,64.333L15.667,17.667L62.333,17.667L62.333,64.333Z" transform="rotate(0 39 41)" fill="#FDF1FD"/>
<path d="M22.333,41L29,41L29,57.667L22.333,57.667L22.333,41ZM49,24.333L55.667,24.333L55.667,57.667L49,57.667L49,24.333ZM35.667,47.667L42.333,47.667L42.333,57.667L35.667,57.667L35.667,47.667ZM35.667,34.333L42.333,34.333L42.333,41L35.667,41L35.667,34.333Z" transform="rotate(0 39 41)" fill="#FDF1FD"/>
</svg>
