<svg width="82" height="82" viewBox="0 0 82 82" fill="none" xmlns="http://www.w3.org/2000/svg" xmlns:xlink="http://www.w3.org/1999/xlink">
<path d="M50.544,53.776L51.303,51.499L51.303,51.499L50.544,53.776ZM62.456,64.03C62.243,60.278 61.026,57.513 58.845,55.46C56.78,53.515 54.05,52.415 51.303,51.499L49.785,56.053C52.47,56.947 54.313,57.785 55.555,58.954C56.682,60.015 57.507,61.54 57.664,64.302L62.456,64.03ZM51.303,51.499C48.791,50.662 47.754,48.024 47.375,45.767L42.641,46.562C43.066,49.092 44.529,54.302 49.785,56.053L51.303,51.499Z" transform="rotate(0 52.534 55.165)" fill="#FFF6F0"/>
<path d="M31.456,53.778L32.215,56.055L32.216,56.055L31.456,53.778ZM34.619,45.765C34.239,48.026 33.206,50.664 30.696,51.502L32.216,56.055C37.47,54.3 38.929,49.087 39.353,46.56L34.619,45.765ZM30.697,51.501C27.956,52.415 25.219,53.507 23.146,55.441C20.953,57.487 19.724,60.248 19.512,64.007L24.304,64.277C24.46,61.522 25.289,60.007 26.42,58.951C27.671,57.784 29.524,56.952 32.215,56.055L30.697,51.501Z" transform="rotate(0 29.447 55.152)" fill="#FFF6F0"/>
<path d="M41,44.6C36.803,44.6 33.4,41.197 33.4,37L28.6,37C28.6,43.847 34.153,49.4 41,49.4L41,44.6ZM33.4,37L33.4,33L28.6,33L28.6,37L33.4,37ZM33.4,33C33.4,28.803 36.803,25.4 41,25.4L41,20.6C34.153,20.6 28.6,26.153 28.6,33L33.4,33ZM41,25.4C45.197,25.4 48.6,28.803 48.6,33L53.4,33C53.4,26.153 47.847,20.6 41,20.6L41,25.4ZM48.6,33L48.6,37L53.4,37L53.4,33L48.6,33ZM48.6,37C48.6,41.197 45.197,44.6 41,44.6L41,49.4C47.847,49.4 53.4,43.847 53.4,37L48.6,37Z" transform="rotate(0 41 35)" fill="#FFF6F0"/>
<path d="M68.602,41.001C68.602,56.244 56.245,68.601 41.002,68.601L41.002,73.401C58.896,73.401 73.402,58.895 73.402,41.001L68.602,41.001ZM41.002,68.601C25.759,68.601 13.402,56.244 13.402,41.001L8.602,41.001C8.602,58.895 23.108,73.401 41.002,73.401L41.002,68.601ZM13.402,41.001C13.402,25.758 25.759,13.401 41.002,13.401L41.002,8.601C23.108,8.601 8.602,23.107 8.602,41.001L13.402,41.001ZM41.002,13.401C56.245,13.401 68.602,25.758 68.602,41.001L73.402,41.001C73.402,23.107 58.896,8.601 41.002,8.601L41.002,13.401Z" transform="rotate(-174.566 41.002 41.001)" fill="#FFF6F0"/>
</svg>
