<svg width="82" height="82" viewBox="0 0 82 82" fill="none" xmlns="http://www.w3.org/2000/svg" xmlns:xlink="http://www.w3.org/1999/xlink">
<path d="M26.697,30.697L28.394,29L25,25.606L23.303,27.303L26.697,30.697ZM13,41L11.303,39.303L9.606,41L11.303,42.697L13,41ZM23.303,54.697L25,56.394L28.394,53L26.697,51.303L23.303,54.697ZM23.303,27.303L11.303,39.303L14.697,42.697L26.697,30.697L23.303,27.303ZM11.303,42.697L23.303,54.697L26.697,51.303L14.697,39.303L11.303,42.697Z" transform="rotate(0 19 41)" fill="#F6F1FD"/>
<path d="M58.697,27.303L57,25.606L53.606,29L55.303,30.697L58.697,27.303ZM69,41L70.697,42.697L72.394,41L70.697,39.303L69,41ZM55.303,51.303L53.606,53L57,56.394L58.697,54.697L55.303,51.303ZM55.303,30.697L67.303,42.697L70.697,39.303L58.697,27.303L55.303,30.697ZM67.303,39.303L55.303,51.303L58.697,54.697L70.697,42.697L67.303,39.303Z" transform="rotate(0 63 41)" fill="#F6F1FD"/>
<path d="M30.744,62.18L29.924,64.435L34.435,66.076L35.255,63.82L30.744,62.18ZM51.255,19.82L52.076,17.565L47.565,15.924L46.745,18.18L51.255,19.82ZM35.255,63.82L51.255,19.82L46.745,18.18L30.744,62.18L35.255,63.82Z" transform="rotate(0 41 41)" fill="#F6F1FD"/>
</svg>
