<svg width="82" height="82" viewBox="0 0 82 82" fill="none" xmlns="http://www.w3.org/2000/svg" xmlns:xlink="http://www.w3.org/1999/xlink">
<line x1="38.6" y1="11" x2="38.6" y2="71" stroke="#ECFDFC" stroke-width="2.4" stroke-miterlimit="10" stroke-linecap="square"/>
<path d="M53.231,21.273L55.505,22.042L57.042,17.495L54.769,16.726L53.231,21.273ZM41,17L41,19.4L41.025,19.4L41.05,19.399L41,17ZM41,63L41,60.6L40.968,60.6L40.935,60.601L41,63ZM25.929,57.787L23.717,56.858L21.858,61.283L24.071,62.213L25.929,57.787ZM54.769,16.726C50.321,15.222 45.645,14.503 40.95,14.6L41.05,19.399C45.188,19.313 49.31,19.948 53.231,21.273L54.769,16.726ZM41,14.6C37.265,14.6 32.833,15.402 29.243,17.404C25.581,19.447 22.6,22.891 22.6,28L27.4,28C27.4,25.109 28.969,23.053 31.582,21.596C34.267,20.098 37.835,19.4 41,19.4L41,14.6ZM22.6,28C22.6,30.334 23.233,32.344 24.395,34.041C25.537,35.707 27.106,36.951 28.812,37.923C32.142,39.819 36.491,40.931 40.382,41.969C44.464,43.057 48.104,44.076 50.753,45.687C53.228,47.193 54.6,49.056 54.6,52L59.4,52C59.4,46.977 56.772,43.731 53.247,41.587C49.896,39.548 45.536,38.375 41.618,37.331C37.509,36.235 33.858,35.272 31.188,33.752C29.894,33.015 28.963,32.216 28.355,31.328C27.767,30.47 27.4,29.416 27.4,28L22.6,28ZM54.6,52C54.6,54.997 53.192,57.015 50.833,58.406C48.352,59.869 44.826,60.6 41,60.6L41,65.4C45.314,65.4 49.788,64.595 53.272,62.541C56.878,60.414 59.4,56.933 59.4,52L54.6,52ZM40.935,60.601C35.79,60.739 30.675,59.78 25.929,57.787L24.071,62.213C29.445,64.47 35.238,65.556 41.065,65.399L40.935,60.601Z" transform="rotate(0 41 40.003)" fill="#ECFDFC"/>
</svg>
