<svg width="342" height="108" viewBox="0 0 342 108" fill="none" xmlns="http://www.w3.org/2000/svg" xmlns:xlink="http://www.w3.org/1999/xlink">
<path d="M47.793,21.634C46.454,27.075 43.501,32.056 39.272,36.003C35.042,39.951 29.707,42.708 23.878,43.958C22.861,44.162 21.95,44.685 21.294,45.438C20.637,46.19 20.275,47.13 20.267,48.101L20.267,56.343C20.267,56.961 20.412,57.573 20.693,58.134C20.973,58.694 21.381,59.191 21.889,59.588C22.397,59.986 22.991,60.275 23.632,60.435C24.272,60.595 24.942,60.622 25.594,60.515C36.124,58.729 45.752,53.812 53.041,46.497C60.329,39.182 64.887,29.863 66.033,19.931C66.057,19.721 66.033,19.508 65.964,19.308C65.893,19.107 65.78,18.923 65.629,18.765C65.479,18.609 65.294,18.482 65.088,18.396C64.881,18.309 64.658,18.264 64.432,18.263L52.231,18.263C51.191,18.271 50.185,18.61 49.379,19.222C48.572,19.835 48.012,20.685 47.793,21.634Z" fill="#13D7E9"/>
<path d="M70.519,86.11C70.494,86.32 70.517,86.532 70.586,86.732C70.654,86.933 70.767,87.118 70.918,87.276C71.068,87.433 71.252,87.559 71.458,87.645C71.663,87.732 71.887,87.777 72.112,87.778L84.313,87.778C85.354,87.77 86.361,87.431 87.168,86.816C87.975,86.203 88.533,85.351 88.752,84.4C90.091,78.958 93.046,73.978 97.277,70.03C101.508,66.082 106.843,63.325 112.674,62.077C113.691,61.873 114.604,61.351 115.26,60.598C115.917,59.845 116.278,58.905 116.286,57.933L116.286,49.691C116.285,49.073 116.14,48.461 115.86,47.901C115.579,47.34 115.171,46.843 114.664,46.446C114.156,46.048 113.561,45.759 112.92,45.599C112.28,45.439 111.61,45.412 110.958,45.52C103.958,46.692 97.315,49.27 91.488,53.076C86.666,56.213 82.479,60.123 79.118,64.624C74.351,70.993 71.393,78.385 70.519,86.11Z" fill="#13D7E9"/>
<path d="M84.33,18.272L72.122,18.272C71.896,18.273 71.673,18.318 71.467,18.405C71.261,18.491 71.077,18.617 70.927,18.774C70.777,18.932 70.663,19.117 70.595,19.317C70.527,19.518 70.504,19.73 70.528,19.939C71.396,27.663 74.352,35.054 79.119,41.419C82.48,45.919 86.669,49.829 91.49,52.967C97.32,56.765 103.962,59.341 110.959,60.516C111.612,60.624 112.282,60.596 112.922,60.436C113.562,60.276 114.158,59.987 114.665,59.59C115.173,59.192 115.581,58.695 115.861,58.135C116.142,57.574 116.286,56.963 116.286,56.344L116.286,48.109C116.278,47.139 115.917,46.199 115.26,45.446C114.604,44.694 113.692,44.171 112.676,43.967C106.846,42.717 101.511,39.96 97.282,36.012C93.053,32.064 90.1,27.084 88.761,21.643C88.54,20.696 87.982,19.847 87.177,19.234C86.372,18.622 85.369,18.283 84.33,18.272Z" fill="#B6F4F9"/>
<path d="M57.433,64.626C54.073,60.124 49.885,56.215 45.063,53.078C39.236,49.272 32.593,46.693 25.593,45.521C24.941,45.414 24.271,45.441 23.63,45.601C22.99,45.761 22.395,46.05 21.888,46.448C21.38,46.845 20.972,47.342 20.691,47.902C20.411,48.463 20.266,49.074 20.266,49.692L20.266,57.935C20.273,58.906 20.634,59.846 21.291,60.599C21.947,61.353 22.86,61.874 23.877,62.078C29.708,63.325 35.043,66.082 39.274,70.03C43.503,73.978 46.455,78.959 47.792,84.402C48.012,85.352 48.573,86.204 49.381,86.817C50.189,87.432 51.196,87.771 52.238,87.779L64.439,87.779C64.665,87.778 64.888,87.733 65.093,87.647C65.299,87.56 65.483,87.434 65.634,87.278C65.784,87.12 65.897,86.935 65.965,86.734C66.034,86.533 66.057,86.321 66.032,86.112C65.158,78.387 62.2,70.994 57.433,64.626Z" fill="#B6F4F9"/>
<path d="M153.461,29.89L153.461,32.619L145.059,32.619L145.059,41.022L153.461,41.022L154.193,37.59L156.565,37.59L156.565,43.767L138.102,43.767L138.102,41.709L141.206,41.022L141.206,22.508L138.102,21.821L138.102,19.947L145.059,19.763L156.191,19.763L156.191,25.605L153.818,25.605L152.908,22.508L145.059,22.508L145.059,29.89L153.461,29.89ZM183.421,33.991C183.421,37.351 182.666,39.878 181.156,41.575C179.645,43.26 177.053,44.102 173.378,44.102C169.893,44.102 167.408,43.321 165.921,41.759C164.434,40.196 163.691,37.78 163.691,34.51L163.691,22.508L160.588,21.821L160.588,19.947L171.005,19.763L171.005,21.821L167.527,22.508L167.527,34.51C167.527,36.228 167.735,37.568 168.151,38.528C168.567,39.488 169.209,40.174 170.078,40.586C170.957,40.989 172.117,41.19 173.556,41.19C175.091,41.19 176.286,40.96 177.142,40.503C178.01,40.046 178.634,39.298 179.015,38.26C179.395,37.222 179.585,35.799 179.585,33.991L179.585,22.508L176.107,21.821L176.107,19.947L186.524,19.763L186.524,21.821L183.421,22.508L183.421,33.991ZM201.883,41.709L205.54,41.022L205.54,22.508L200.795,22.508L199.885,25.939L197.495,25.939L197.495,19.763L217.421,19.763L217.421,25.939L215.048,25.939L214.121,22.508L209.375,22.508L209.375,41.022L213.033,41.709L213.033,43.767L201.883,43.767L201.883,41.709ZM242.457,33.991C242.457,37.351 241.701,39.878 240.191,41.575C238.681,43.26 236.088,44.102 232.414,44.102C228.929,44.102 226.443,43.321 224.957,41.759C223.471,40.196 222.728,37.78 222.728,34.51L222.728,22.508L219.623,21.821L219.623,19.947L230.041,19.763L230.041,21.821L226.562,22.508L226.562,34.51C226.562,36.228 226.771,37.568 227.187,38.528C227.603,39.488 228.246,40.174 229.113,40.586C229.994,40.989 231.153,41.19 232.592,41.19C234.126,41.19 235.321,40.96 236.178,40.503C237.046,40.046 237.67,39.298 238.05,38.26C238.431,37.222 238.622,35.799 238.622,33.991L238.622,22.508L235.143,21.821L235.143,19.947L245.561,19.763L245.561,21.821L242.457,22.508L242.457,33.991ZM251.956,22.508L248.852,21.821L248.852,19.947L255.791,19.763L259.805,19.763C262.386,19.763 264.401,20.315 265.852,21.42C267.303,22.513 268.028,24.02 268.028,25.939C268.028,29.298 266.447,31.525 263.284,32.619C263.866,33.098 264.597,34.131 265.477,35.715L268.367,41.156L270.954,41.709L270.954,43.767L265.477,43.767L262.374,37.423C261.791,36.24 261.279,35.369 260.839,34.811C260.4,34.243 259.929,33.852 259.43,33.64C258.931,33.417 258.264,33.305 257.432,33.305L255.791,33.305L255.791,41.022L258.895,41.709L258.895,43.767L248.852,43.767L248.852,41.709L251.956,41.022L251.956,22.508ZM258.538,30.744C260.31,30.744 261.696,30.37 262.694,29.623C263.694,28.863 264.193,27.809 264.193,26.459C264.193,25.32 263.765,24.377 262.908,23.629C262.064,22.882 260.97,22.508 259.626,22.508L255.791,22.508L255.791,30.744L258.538,30.744ZM276.082,22.508L272.978,21.821L272.978,19.947L279.917,19.763L283.753,19.763C286.453,19.763 288.527,20.393 289.978,21.654C291.429,22.916 292.155,24.628 292.155,26.793C292.155,29.427 291.292,31.43 289.568,32.803C287.856,34.175 285.429,34.861 282.29,34.861L279.917,34.861L279.917,41.022L283.021,41.709L283.021,43.767L272.978,43.767L272.978,41.709L276.082,41.022L276.082,22.508ZM282.29,32.116C284.288,32.116 285.792,31.703 286.803,30.878C287.814,30.052 288.32,28.863 288.32,27.313C288.32,25.894 287.903,24.739 287.07,23.847C286.25,22.955 285.084,22.508 283.574,22.508L279.917,22.508L279.917,32.116L282.29,32.116ZM295.07,41.709L298.175,41.022L298.175,22.508L295.07,21.821L295.07,19.947L305.114,19.763L305.114,21.821L302.01,22.508L302.01,41.022L305.114,41.709L305.114,43.767L295.07,43.767L295.07,41.709ZM313.346,40.336C313.441,40.381 313.662,40.475 314.006,40.62C314.351,40.754 314.821,40.882 315.415,41.005C316.01,41.128 316.658,41.19 317.36,41.19C318.823,41.19 320.119,40.866 321.249,40.219C322.39,39.572 322.961,38.673 322.961,37.524C322.961,36.786 322.718,36.173 322.23,35.682C321.742,35.18 321.135,34.772 320.411,34.46C319.697,34.148 318.71,33.774 317.449,33.339C315.796,32.792 314.458,32.278 313.436,31.799C312.424,31.318 311.557,30.626 310.831,29.723C310.117,28.819 309.761,27.658 309.761,26.241C309.761,23.975 310.581,22.274 312.222,21.135C313.876,19.997 315.945,19.428 318.43,19.428C319.453,19.428 320.535,19.534 321.677,19.746C322.819,19.947 323.794,20.159 324.602,20.382C325.411,20.594 325.922,20.734 326.136,20.8L325.958,26.626L323.586,26.626L322.337,22.96C322.242,22.937 322.01,22.876 321.642,22.775C321.273,22.664 320.797,22.563 320.214,22.474C319.632,22.385 319.049,22.34 318.466,22.34C316.908,22.34 315.707,22.67 314.862,23.328C314.018,23.975 313.596,24.757 313.596,25.671C313.596,26.408 313.84,27.028 314.327,27.53C314.815,28.021 315.422,28.428 316.147,28.751C316.884,29.076 317.913,29.455 319.233,29.89C320.815,30.414 322.111,30.911 323.122,31.38C324.133,31.849 324.989,32.512 325.691,33.372C326.405,34.22 326.761,35.297 326.761,36.603C326.761,38.243 326.333,39.633 325.476,40.771C324.621,41.898 323.467,42.735 322.016,43.282C320.577,43.828 318.977,44.102 317.217,44.102C316.075,44.102 314.952,44.001 313.846,43.801C312.74,43.6 311.818,43.393 311.081,43.181C310.355,42.958 309.892,42.813 309.69,42.746L309.69,36.736L312.615,36.736L313.346,40.336ZM160.4,63.68L159.294,66.258L153.639,77.055L150.714,77.223L145.059,66.09L144.132,63.68L144.132,80.821L147.61,81.508L147.61,83.566L137.745,83.566L137.745,81.508L140.849,80.821L140.849,62.307L137.745,61.62L137.745,59.746L145.969,59.562L152.569,73.288L159.473,59.746L167.161,59.562L167.161,61.62L164.04,62.307L164.04,80.821L167.161,81.508L167.161,83.566L156.922,83.566L156.922,81.508L160.4,80.821L160.4,63.68ZM183.028,59.227C185.371,59.227 187.393,59.713 189.094,60.683C190.806,61.654 192.108,63.044 193,64.852C193.904,66.659 194.356,68.785 194.356,71.229C194.356,73.718 193.851,75.922 192.84,77.841C191.829,79.761 190.408,81.251 188.576,82.311C186.757,83.371 184.669,83.901 182.314,83.901C178.735,83.901 175.982,82.858 174.055,80.771C172.129,78.684 171.166,75.671 171.166,71.732C171.166,69.243 171.647,67.05 172.61,65.153C173.574,63.256 174.948,61.793 176.732,60.767C178.527,59.74 180.626,59.227 183.028,59.227ZM182.85,62.139C180.412,62.139 178.551,62.909 177.267,64.45C175.994,65.99 175.358,68.361 175.358,71.564C175.358,74.678 175.953,77.027 177.142,78.611C178.343,80.196 180.127,80.989 182.493,80.989C184.931,80.989 186.817,80.185 188.148,78.578C189.492,76.971 190.163,74.578 190.163,71.397C190.163,68.339 189.539,66.035 188.291,64.483C187.054,62.921 185.24,62.139 182.85,62.139ZM213.363,76.888L215.914,76.888L215.914,83.566L198.2,83.566L198.2,81.508L201.304,80.821L201.304,62.307L198.2,61.62L198.2,59.746L208.243,59.562L208.243,61.62L205.14,62.307L205.14,80.821L212.632,80.821L213.363,76.888ZM233.832,69.689L233.832,72.418L225.43,72.418L225.43,80.821L233.832,80.821L234.563,77.389L236.937,77.389L236.937,83.566L218.473,83.566L218.473,81.508L221.577,80.821L221.577,62.307L218.473,61.62L218.473,59.746L225.43,59.562L236.561,59.562L236.561,65.404L234.189,65.404L233.279,62.307L225.43,62.307L225.43,69.689L233.832,69.689ZM245.704,80.135C245.799,80.18 246.018,80.274 246.364,80.419C246.709,80.554 247.178,80.682 247.773,80.804C248.367,80.927 249.016,80.989 249.717,80.989C251.18,80.989 252.476,80.665 253.606,80.018C254.748,79.371 255.318,78.472 255.318,77.323C255.318,76.586 255.075,75.972 254.587,75.481C254.1,74.979 253.493,74.572 252.767,74.259C252.054,73.947 251.067,73.573 249.807,73.138C248.154,72.591 246.816,72.077 245.792,71.598C244.782,71.118 243.913,70.425 243.189,69.522C242.475,68.618 242.118,67.457 242.118,66.04C242.118,63.775 242.939,62.073 244.58,60.934C246.233,59.796 248.302,59.227 250.788,59.227C251.81,59.227 252.893,59.333 254.034,59.545C255.176,59.746 256.151,59.958 256.96,60.182C257.768,60.393 258.28,60.533 258.494,60.599L258.316,66.425L255.943,66.425L254.694,62.759C254.599,62.736 254.367,62.675 253.998,62.575C253.63,62.463 253.154,62.363 252.572,62.274C251.989,62.184 251.405,62.139 250.823,62.139C249.266,62.139 248.064,62.469 247.22,63.128C246.375,63.775 245.954,64.556 245.954,65.47C245.954,66.208 246.197,66.827 246.685,67.329C247.173,67.82 247.778,68.227 248.504,68.551C249.242,68.875 250.27,69.254 251.59,69.689C253.172,70.214 254.468,70.71 255.479,71.179C256.49,71.648 257.346,72.312 258.048,73.171C258.761,74.02 259.118,75.096 259.118,76.402C259.118,78.043 258.69,79.432 257.834,80.57C256.977,81.697 255.824,82.534 254.373,83.081C252.934,83.628 251.334,83.901 249.574,83.901C248.433,83.901 247.309,83.801 246.203,83.6C245.097,83.399 244.175,83.192 243.438,82.98C242.713,82.757 242.249,82.613 242.046,82.545L242.046,76.536L244.972,76.536L245.704,80.135ZM266.405,81.508L270.062,80.821L270.062,62.307L265.317,62.307L264.407,65.739L262.017,65.739L262.017,59.562L281.942,59.562L281.942,65.739L279.57,65.739L278.642,62.307L273.897,62.307L273.897,80.821L277.554,81.508L277.554,83.566L266.405,83.566L266.405,81.508ZM284.324,81.508L287.427,80.821L287.427,62.307L284.324,61.62L284.324,59.746L294.367,59.562L294.367,61.62L291.263,62.307L291.263,80.821L294.367,81.508L294.367,83.566L284.324,83.566L284.324,81.508ZM313.569,69.689L313.569,72.418L305.167,72.418L305.167,80.821L313.569,80.821L314.301,77.389L316.674,77.389L316.674,83.566L298.211,83.566L298.211,81.508L301.314,80.821L301.314,62.307L298.211,61.62L298.211,59.746L305.167,59.562L316.299,59.562L316.299,65.404L313.926,65.404L313.016,62.307L305.167,62.307L305.167,69.689L313.569,69.689Z" fill="#1D2128"/>
</svg>
