<svg width="110" height="100" viewBox="0 0 110 100" fill="none" xmlns="http://www.w3.org/2000/svg" xmlns:xlink="http://www.w3.org/1999/xlink">
<path d="M78.596,16.4L78.596,54.613L105.17,34.782L78.596,16.4Z" clip-rule="evenodd" fill-rule="evenodd" fill="#F26419"/>
<path d="M109.49,97.785L109.49,44.103L78.58,67.166L78.58,97.785L109.49,97.785Z" clip-rule="evenodd" fill-rule="evenodd" fill="#2F4858"/>
<path d="M31.42,97.811L31.42,68.715L0.51,97.811L31.42,97.811Z" clip-rule="evenodd" fill-rule="evenodd" fill="#55DDE0"/>
<path d="M53.323,34.373L56.629,37.715L70.449,51.661L70.449,10.61L54.994,-0.461L39.54,10.61L39.54,46.881L49.847,37.531L53.323,34.373Z" clip-rule="evenodd" fill-rule="evenodd" fill="#F58B35"/>
<path d="M70.277,66.469L52.788,48.812L39.368,60.989L39.368,98.022L70.277,98.022L70.277,66.469Z" clip-rule="evenodd" fill-rule="evenodd" fill="#33658A"/>
<path d="M31.42,16.415L0.51,38.556L0.51,82.299L31.42,54.235L31.42,16.415Z" clip-rule="evenodd" fill-rule="evenodd" fill="#F6AE2D"/>
</svg>
