<svg width="96" height="96" viewBox="0 0 96 96" fill="none" xmlns="http://www.w3.org/2000/svg" xmlns:xlink="http://www.w3.org/1999/xlink">
<path d="M94.216,81.177C94.216,88.386 88.348,94.254 81.139,94.254C80.684,94.254 80.241,94.229 79.798,94.191C72.261,93.508 69.162,87.235 64.078,87.235C58.993,87.235 55.895,93.496 48.357,94.191C47.914,94.242 47.472,94.254 47.016,94.254C39.807,94.254 33.939,88.386 33.939,81.177C33.939,73.968 39.807,68.1 47.016,68.1C55.553,68.1 58.703,75.132 64.078,75.132C69.453,75.132 72.615,68.1 81.139,68.1C88.348,68.1 94.216,73.968 94.216,81.177Z" fill="#81CF4E"/>
<path d="M12.822,94.217C5.613,94.217 -0.255,88.349 -0.255,81.14C-0.255,80.685 -0.23,80.242 -0.192,79.799C0.491,72.262 6.764,69.163 6.764,64.079C6.764,58.994 0.491,55.896 -0.192,48.358C-0.242,47.915 -0.255,47.473 -0.255,47.017C-0.255,39.808 5.613,33.94 12.822,33.94C20.031,33.94 25.9,39.808 25.9,47.017C25.9,55.554 18.868,58.703 18.868,64.079C18.868,69.454 25.9,72.616 25.9,81.14C25.9,88.349 20.031,94.217 12.822,94.217Z" fill="#2858FF"/>
<path d="M46.979,60.077C54.188,60.077 60.057,54.209 60.057,47C60.057,39.791 54.188,33.923 46.979,33.923C39.77,33.923 33.902,39.791 33.902,47C33.902,54.209 39.77,60.077 46.979,60.077Z" fill="#81CF4E"/>
<path d="M12.877,25.938C13.104,25.938 13.319,25.912 13.547,25.9C13.775,25.9 13.99,25.9 14.217,25.862C21.755,25.179 24.866,18.906 29.938,18.906C35.009,18.906 38.121,25.179 45.659,25.862C45.874,25.887 46.101,25.887 46.329,25.9C46.557,25.9 46.772,25.938 46.999,25.938C47.455,25.938 47.897,25.912 48.34,25.874C55.878,25.191 58.976,18.918 64.06,18.918C66.78,18.918 68.93,20.714 71.497,22.497C73.28,25.065 75.076,27.215 75.076,29.934C75.076,35.018 68.803,38.117 68.12,45.655C68.095,45.87 68.095,46.097 68.082,46.312C68.082,46.54 68.044,46.755 68.044,46.983C68.044,54.192 73.913,60.06 81.122,60.06C88.331,60.06 94.199,54.192 94.199,46.983C94.199,46.742 94.174,46.527 94.161,46.312C94.161,46.097 94.161,45.87 94.123,45.655C93.44,38.117 87.167,35.006 87.167,29.934C87.167,24.863 93.44,21.739 94.136,14.201C94.161,13.986 94.161,13.758 94.174,13.531C94.174,13.303 94.212,13.088 94.212,12.86C94.199,5.651 88.331,-0.217 81.122,-0.217C72.585,-0.217 69.436,6.815 64.06,6.815C58.685,6.815 55.524,-0.217 46.999,-0.217C46.772,-0.217 46.557,-0.192 46.329,-0.179C46.101,-0.179 45.886,-0.179 45.659,-0.141C38.121,0.542 35.009,6.815 29.938,6.815C24.866,6.815 21.755,0.542 14.217,-0.141C14.002,-0.167 13.775,-0.167 13.547,-0.179C13.319,-0.179 13.104,-0.217 12.877,-0.217C5.668,-0.217 -0.201,5.651 -0.201,12.86C-0.201,20.069 5.668,25.938 12.877,25.938Z" fill="#81CF4E"/>
</svg>
