<svg width="86" height="98" viewBox="0 0 86 98" fill="none" xmlns="http://www.w3.org/2000/svg" xmlns:xlink="http://www.w3.org/1999/xlink">
<path d="M63.48,15.02L85.24,26.147L85.24,85.493L63.48,96.62L63.48,15.02Z" fill="#D9D9D9"/>
<path d="M63.48,15.02L85.24,26.147L85.24,85.493L63.48,96.62L63.48,15.02Z" fill="#4AA8FF"/>
<path d="M32.12,0.02L53.88,11.147L53.88,70.493L32.12,81.62L32.12,0.02Z" fill="#D9D9D9"/>
<path d="M32.12,0.02L53.88,11.147L53.88,70.493L32.12,81.62L32.12,0.02Z" fill="#4A7DFF"/>
<path d="M63.48,14.98L63.48,65.3L85.24,54.173L85.24,26.107L63.48,14.98Z" clip-rule="evenodd" fill-rule="evenodd" fill="#2858FF"/>
<path d="M0.76,15.02L22.52,26.147L22.52,85.493L0.76,96.62L0.76,15.02Z" fill="#4AA8FF"/>
</svg>
