<svg width="96" height="96" viewBox="0 0 96 96" fill="none" xmlns="http://www.w3.org/2000/svg" xmlns:xlink="http://www.w3.org/1999/xlink">
<path d="M89.48,47C89.48,70.461 70.461,89.48 47,89.48L47,94.2C73.068,94.2 94.2,73.068 94.2,47L89.48,47ZM47,89.48C23.539,89.48 4.52,70.461 4.52,47L-0.2,47C-0.2,73.068 20.932,94.2 47,94.2L47,89.48ZM4.52,47C4.52,23.539 23.539,4.52 47,4.52L47,-0.2C20.932,-0.2 -0.2,20.932 -0.2,47L4.52,47ZM47,4.52C70.461,4.52 89.48,23.539 89.48,47L94.2,47C94.2,20.932 73.068,-0.2 47,-0.2L47,4.52Z" fill="#FFC061"/>
<g opacity="0.7">
<path d="M47.72,50.611C54.939,50.611 60.791,44.759 60.791,37.54C60.791,30.321 54.939,24.469 47.72,24.469C40.501,24.469 34.649,30.321 34.649,37.54C34.649,44.759 40.501,50.611 47.72,50.611Z" fill="#FB007E"/>
</g>
<g opacity="0.7">
<path d="M47.72,69.531C54.939,69.531 60.791,63.679 60.791,56.46C60.791,49.241 54.939,43.389 47.72,43.389C40.501,43.389 34.649,49.241 34.649,56.46C34.649,63.679 40.501,69.531 47.72,69.531Z" fill="#00ABCD"/>
</g>
</svg>
