<svg width="66" height="100" viewBox="0 0 66 100" fill="none" xmlns="http://www.w3.org/2000/svg" xmlns:xlink="http://www.w3.org/1999/xlink">
<path d="M18.493,98.174C10.769,93.648 4.812,86.495 1.804,77.897C-0.333,71.79 -0.333,64.193 -0.333,49C-0.333,33.807 -0.333,26.21 1.804,20.103C4.812,11.505 10.769,4.352 18.493,-0.174L61.512,42.845C63.666,45 64.744,46.077 65.147,47.319C65.502,48.411 65.502,49.588 65.147,50.681C64.744,51.923 63.666,53 61.512,55.155L18.493,98.174Z" clip-rule="evenodd" fill-rule="evenodd" fill="#0400CC"/>
<path d="M41.488,50.926L39.568,49L39.568,49L41.488,50.926ZM43.42,49L45.341,50.926L47.273,49L45.341,47.074L43.42,49ZM41.488,47.074L39.568,49L39.568,49L41.488,47.074ZM27.879,33.507L25.959,35.433L25.959,35.434L27.879,33.507ZM27.879,31.581L25.959,29.655L25.959,29.655L27.879,31.581ZM35.606,23.878L33.686,21.951L33.686,21.952L35.606,23.878ZM37.526,23.878L35.606,25.804L35.606,25.804L37.526,23.878ZM61.761,48.037L63.681,46.111L63.681,46.11L61.761,48.037ZM61.761,49.963L63.681,51.889L63.681,51.889L61.761,49.963ZM37.526,74.122L35.606,72.196L35.606,72.196L37.526,74.122ZM35.606,74.122L33.686,76.048L33.686,76.049L35.606,74.122ZM27.879,66.419L25.959,68.345L25.959,68.345L27.879,66.419ZM27.879,64.493L25.959,62.566L25.959,62.567L27.879,64.493ZM43.408,52.853L45.341,50.926L41.5,47.074L39.568,49L43.408,52.853ZM45.341,47.074L43.408,45.147L39.568,49L41.5,50.926L45.341,47.074ZM43.408,45.147L29.799,31.581L25.959,35.434L39.568,49L43.408,45.147ZM29.799,31.581C30.332,32.112 30.332,32.976 29.799,33.507L25.959,29.655C24.359,31.249 24.359,33.839 25.959,35.433L29.799,31.581ZM29.799,33.507L37.526,25.804L33.686,21.952L25.959,29.655L29.799,33.507ZM37.526,25.804C36.996,26.333 36.137,26.333 35.606,25.804L39.447,21.952C37.854,20.364 35.278,20.364 33.686,21.951L37.526,25.804ZM35.606,25.804L59.841,49.963L63.681,46.11L39.447,21.951L35.606,25.804ZM59.841,49.963C59.308,49.432 59.308,48.568 59.841,48.037L63.681,51.889C65.281,50.295 65.281,47.705 63.681,46.111L59.841,49.963ZM59.841,48.037L35.606,72.196L39.447,76.049L63.681,51.889L59.841,48.037ZM35.606,72.196C36.137,71.666 36.996,71.667 37.526,72.196L33.686,76.049C35.278,77.636 37.854,77.636 39.447,76.048L35.606,72.196ZM37.526,72.196L29.799,64.493L25.959,68.345L33.686,76.048L37.526,72.196ZM29.799,64.493C30.332,65.024 30.332,65.888 29.799,66.419L25.959,62.567C24.359,64.161 24.359,66.751 25.959,68.345L29.799,64.493ZM29.799,66.419L43.408,52.853L39.568,49L25.959,62.566L29.799,66.419Z" fill="#FFFFFF"/>
</svg>
