<svg width="434" height="114" viewBox="0 0 434 114" fill="none" xmlns="http://www.w3.org/2000/svg" xmlns:xlink="http://www.w3.org/1999/xlink">
<path d="M60.872,74.522C57.584,77.874 57.586,83.312 60.874,86.664C64.16,90.017 64.163,95.454 60.875,98.806C57.585,102.159 52.252,102.159 48.962,98.805L25.142,74.522C21.853,71.17 21.854,65.735 25.145,62.384C28.433,59.036 33.763,59.038 37.051,62.386C40.341,65.736 45.675,65.735 48.965,62.386C52.253,59.038 57.582,59.036 60.871,62.384C64.16,65.734 64.161,71.171 60.872,74.522Z" fill="#FFD9BE"/>
<path d="M109.307,62.383C112.598,65.734 112.6,71.171 109.31,74.524L85.49,98.805C82.202,102.159 76.867,102.159 73.577,98.806C70.289,95.454 70.292,90.017 73.58,86.664C76.866,83.312 76.868,77.873 73.581,74.523C70.292,71.171 70.292,65.736 73.582,62.385C76.869,59.037 82.199,59.039 85.486,62.388C88.773,65.738 94.107,65.734 97.396,62.387C100.686,59.04 106.019,59.035 109.307,62.383Z" fill="#FF832B"/>
<path d="M109.31,38.381C112.6,41.733 112.6,47.169 109.31,50.521C106.021,53.873 100.685,53.87 97.395,50.519C94.106,47.17 88.773,47.168 85.486,50.519C82.2,53.871 76.867,53.871 73.58,50.52C70.291,47.169 70.29,41.733 73.579,38.383C76.868,35.03 76.868,29.596 73.58,26.243C70.29,22.892 70.29,17.457 73.58,14.105C76.868,10.753 82.201,10.753 85.49,14.105L109.31,38.381Z" fill="#FFD9BE"/>
<path d="M60.874,26.243C57.585,29.596 57.585,35.03 60.874,38.382C64.162,41.733 64.162,47.168 60.874,50.52C57.585,53.872 52.252,53.872 48.963,50.52C45.674,47.168 40.341,47.168 37.052,50.52C33.763,53.872 28.431,53.872 25.142,50.52C21.853,47.168 21.853,41.733 25.142,38.382L48.963,14.105C52.252,10.753 57.585,10.753 60.874,14.105C64.162,17.457 64.162,22.892 60.874,26.243Z" fill="#FF832B"/>
<path d="M153.584,78.442C150.289,78.442 146.358,78.118 141.792,77.471L141.792,72.555C146.398,73.566 150.448,74.071 153.942,74.071C156.88,74.071 159.023,73.748 160.373,73.1C161.723,72.413 162.399,71.158 162.399,69.337L162.399,64.24C162.399,62.541 161.922,61.347 160.969,60.659C160.016,59.971 158.348,59.627 155.967,59.627L151.441,59.627C147.669,59.627 144.989,58.859 143.4,57.32C141.812,55.783 141.018,53.396 141.018,50.159L141.018,47.004C141.018,44.859 141.475,43.119 142.389,41.783C143.341,40.449 144.909,39.457 147.092,38.809C149.316,38.162 152.354,37.839 156.204,37.839C158.786,37.839 162.101,38.061 166.15,38.506L166.15,42.937C161.624,42.249 158.17,41.905 155.788,41.905C152.095,41.905 149.654,42.269 148.463,42.997C147.232,43.766 146.616,45.041 146.616,46.821L146.616,51.312C146.616,52.687 147.092,53.699 148.045,54.347C149.038,54.954 150.725,55.258 153.108,55.258L157.753,55.258C160.413,55.258 162.477,55.581 163.947,56.229C165.455,56.876 166.507,57.867 167.102,59.202C167.738,60.497 168.055,62.257 168.055,64.483L168.055,67.335C168.055,70.127 167.54,72.332 166.507,73.95C165.515,75.569 163.967,76.722 161.862,77.41C159.757,78.098 156.998,78.442 153.584,78.442ZM192.076,78.442C181.277,78.442 175.877,74.881 175.877,67.76L175.877,49.127C175.877,41.601 181.277,37.839 192.076,37.839C202.994,37.839 208.453,41.581 208.453,49.066L208.453,67.76C208.453,71.563 206.945,74.294 203.927,75.953C200.909,77.612 196.96,78.442 192.076,78.442ZM192.195,74.497C199.302,74.497 202.855,72.23 202.855,67.699L202.855,48.946C202.855,44.09 199.282,41.662 192.135,41.662C188.681,41.662 186.021,42.209 184.155,43.301C182.329,44.393 181.416,46.274 181.416,48.946L181.416,67.699C181.416,72.23 185.009,74.497 192.195,74.497ZM233.031,78.442C222.192,78.442 216.773,74.881 216.773,67.76L216.773,49.066C216.773,41.541 222.192,37.778 233.031,37.778C236.723,37.778 240.257,38.162 243.632,38.931L243.632,43.301C239.82,42.33 236.327,41.844 233.15,41.844C231.602,41.844 230.252,41.945 229.101,42.148C227.949,42.31 226.837,42.613 225.765,43.058C223.463,44.07 222.311,46.053 222.311,49.005L222.311,67.456C222.311,71.988 226.004,74.254 233.389,74.254C236.564,74.254 240.059,73.769 243.869,72.798L243.869,77.289C240.495,78.057 236.882,78.442 233.031,78.442ZM252.175,38.446L257.952,38.446L257.952,77.834L252.175,77.834L252.175,38.446ZM283.657,78.442C272.858,78.442 267.459,74.881 267.459,67.76L267.459,49.127C267.459,41.601 272.858,37.839 283.657,37.839C294.575,37.839 300.034,41.581 300.034,49.066L300.034,67.76C300.034,71.563 298.526,74.294 295.508,75.953C292.491,77.612 288.541,78.442 283.657,78.442ZM283.776,74.497C290.883,74.497 294.436,72.23 294.436,67.699L294.436,48.946C294.436,44.09 290.863,41.662 283.717,41.662C280.263,41.662 277.603,42.209 275.737,43.301C273.911,44.393 272.997,46.274 272.997,48.946L272.997,67.699C272.997,72.23 276.59,74.497 283.776,74.497ZM320.682,78.442C317.388,78.442 313.457,78.118 308.891,77.471L308.891,72.555C313.496,73.566 317.546,74.071 321.04,74.071C323.977,74.071 326.122,73.748 327.471,73.1C328.821,72.413 329.496,71.158 329.496,69.337L329.496,64.24C329.496,62.541 329.02,61.347 328.067,60.659C327.114,59.971 325.447,59.627 323.064,59.627L318.538,59.627C314.766,59.627 312.086,58.859 310.499,57.32C308.911,55.783 308.117,53.396 308.117,50.159L308.117,47.004C308.117,44.859 308.573,43.119 309.486,41.783C310.439,40.449 312.007,39.457 314.191,38.809C316.415,38.162 319.451,37.839 323.303,37.839C325.883,37.839 329.199,38.061 333.248,38.506L333.248,42.937C328.722,42.249 325.268,41.905 322.885,41.905C319.194,41.905 316.752,42.269 315.561,42.997C314.33,43.766 313.715,45.041 313.715,46.821L313.715,51.312C313.715,52.687 314.191,53.699 315.144,54.347C316.137,54.954 317.824,55.258 320.206,55.258L324.851,55.258C327.511,55.258 329.576,55.581 331.044,56.229C332.554,56.876 333.606,57.867 334.201,59.202C334.836,60.497 335.154,62.257 335.154,64.483L335.154,67.335C335.154,70.127 334.638,72.332 333.606,73.95C332.613,75.569 331.064,76.722 328.961,77.41C326.856,78.098 324.097,78.442 320.682,78.442ZM359.114,77.834C348.276,77.834 342.856,74.274 342.856,67.153L342.856,49.127C342.856,41.601 348.276,37.839 359.114,37.839C369.992,37.839 375.432,41.581 375.432,49.066L375.432,65.332C375.432,69.055 373.666,72.109 370.132,74.497L379.66,74.497L379.66,77.834L359.114,77.834ZM359.234,73.89C366.34,73.89 369.894,71.624 369.894,67.092L369.894,48.946C369.894,44.09 366.32,41.662 359.174,41.662C357.584,41.662 356.216,41.763 355.064,41.966C353.912,42.128 352.822,42.452 351.79,42.937C349.526,44.029 348.394,46.032 348.394,48.946L348.394,67.092C348.394,71.624 352.008,73.89 359.234,73.89ZM399.954,78.442C397.85,78.442 396.004,78.3 394.416,78.017C392.868,77.733 391.34,77.248 389.83,76.561C388.242,75.831 387.012,74.72 386.138,73.222C385.304,71.725 384.888,69.904 384.888,67.76L384.888,38.446L390.426,38.446L390.426,67.699C390.426,70.168 391.24,71.928 392.868,72.98C394.496,73.99 396.898,74.497 400.074,74.497C403.25,74.497 405.612,73.99 407.16,72.98C408.748,71.928 409.542,70.168 409.542,67.699L409.542,38.446L415.08,38.446L415.08,67.76C415.08,74.881 410.038,78.442 399.954,78.442Z" fill="#DEE1E6"/>
</svg>
