<svg width="94" height="96" viewBox="0 0 94 96" fill="none" xmlns="http://www.w3.org/2000/svg" xmlns:xlink="http://www.w3.org/1999/xlink">
<path d="M45.058,20.215L71.789,47.006L82.02,36.801L92.225,47.032L45.078,-0.221L55.283,10.01L45.058,20.215Z" fill="#FF5A0E"/>
<path d="M34.713,84.003L44.938,73.799L18.207,47.001L7.976,57.213L44.918,94.234L34.713,84.003Z" fill="#6EE8FC"/>
<path d="M45.017,20.19L34.805,9.959L45.037,-0.246L8.015,36.697L18.219,46.921L45.017,20.19Z" fill="#6A0EF0"/>
<path d="M41.712,3.076L34.823,9.95L45.031,20.18L55.261,9.972L48.387,3.083C46.545,1.238 43.557,1.235 41.712,3.076Z" fill="#FF5AF0"/>
<path d="M7.972,36.743L1.083,43.617C-0.762,45.459 -0.765,48.447 1.076,50.292L7.95,57.181L18.18,46.973L7.972,36.743Z" fill="#6EE8FC"/>
<path d="M71.796,47.077L44.999,73.815L55.21,84.046L44.979,94.251L92.232,47.104L82.001,57.309L71.796,47.077Z" fill="#FFBE0E"/>
<path d="M82.054,36.823L71.824,47.031L82.032,57.261L88.921,50.387C90.767,48.545 90.77,45.557 88.928,43.712L82.054,36.823Z" fill="#FFBE0E"/>
<path d="M44.973,73.824L34.743,84.033L41.617,90.922C43.459,92.767 46.447,92.77 48.292,90.928L55.181,84.054L44.973,73.824Z" fill="#47E89B"/>
</svg>
