<svg width="232" height="72" viewBox="0 0 232 72" fill="none" xmlns="http://www.w3.org/2000/svg" xmlns:xlink="http://www.w3.org/1999/xlink">
<path d="M19.217,2.455C19.217,-0.247 22.509,-1.572 24.381,0.377L57.632,35L19.217,35L19.217,2.455Z" fill="#0EA89B"/>
<path d="M-0.01,12.454C-0.01,9.752 3.282,8.427 5.154,10.376L28.802,35L-0.01,35L-0.01,12.454Z" fill="#FFAB49"/>
<path d="M38.405,67.545C38.405,70.247 35.113,71.572 33.241,69.623L-0.01,35L38.405,35L38.405,67.545Z" fill="#FF8E0A"/>
<path d="M57.624,57.547C57.624,60.249 54.332,61.574 52.46,59.625L28.813,35.001L57.624,35.001L57.624,57.547Z" fill="#4CA59B"/>
<path d="M210.557,55.305C206.833,55.305 203.407,54.43 200.279,52.68C197.188,50.929 194.73,48.509 192.905,45.418C191.08,42.327 190.168,38.845 190.168,34.972C190.168,31.099 191.08,27.617 192.905,24.526C194.73,21.435 197.188,19.033 200.279,17.32C203.407,15.57 206.833,14.694 210.557,14.694C214.281,14.694 217.689,15.57 220.78,17.32C223.871,19.033 226.31,21.435 228.097,24.526C229.922,27.617 230.835,31.099 230.835,34.972C230.835,38.845 229.922,42.327 228.097,45.418C226.31,48.509 223.852,50.929 220.724,52.68C217.633,54.43 214.244,55.305 210.557,55.305ZM210.557,43.742C213.015,43.742 214.914,42.96 216.255,41.396C217.596,39.795 218.266,37.653 218.266,34.972C218.266,32.253 217.596,30.112 216.255,28.548C214.914,26.947 213.015,26.146 210.557,26.146C208.062,26.146 206.144,26.947 204.803,28.548C203.463,30.112 202.793,32.253 202.793,34.972C202.793,37.653 203.463,39.795 204.803,41.396C206.144,42.96 208.062,43.742 210.557,43.742Z" fill="#0E0E0E"/>
<path d="M174.092,28.882C173.746,28.882 173.431,28.697 173.214,28.427C172.762,27.865 172.18,27.421 171.468,27.094C170.574,26.648 169.494,26.424 168.228,26.424C165.845,26.424 164.001,27.206 162.698,28.77C161.394,30.297 160.743,32.401 160.743,35.082C160.743,38.173 161.469,40.482 162.921,42.009C164.374,43.536 166.608,44.299 169.625,44.299C171.799,44.299 173.652,43.636 175.184,42.309C175.808,41.767 175.365,40.836 174.538,40.836L167.664,40.836C167.112,40.836 166.664,40.388 166.664,39.836L166.664,33.066C166.664,32.514 167.112,32.066 167.664,32.066L185.83,32.066C186.382,32.066 186.83,32.514 186.83,33.066L186.83,44.197C186.83,44.374 186.783,44.548 186.693,44.7C184.991,47.543 182.672,49.997 179.735,52.064C176.719,54.15 172.902,55.192 168.284,55.192C164.187,55.192 160.612,54.354 157.559,52.679C154.542,50.966 152.215,48.582 150.576,45.528C148.975,42.475 148.174,38.993 148.174,35.082C148.174,31.172 148.975,27.69 150.576,24.637C152.215,21.583 154.542,19.218 157.559,17.542C160.575,15.829 164.113,14.973 168.172,14.973C173.349,14.973 177.557,16.22 180.797,18.715C183.78,20.986 185.652,23.998 186.413,27.749C186.534,28.344 186.065,28.882 185.458,28.882L174.092,28.882Z" fill="#0E0E0E"/>
<path d="M124.516,55.305C120.792,55.305 117.366,54.43 114.238,52.68C111.147,50.929 108.689,48.509 106.864,45.418C105.039,42.327 104.127,38.845 104.127,34.972C104.127,31.099 105.039,27.617 106.864,24.526C108.689,21.435 111.147,19.033 114.238,17.32C117.366,15.57 120.792,14.694 124.516,14.694C128.24,14.694 131.647,15.57 134.738,17.32C137.829,19.033 140.269,21.435 142.056,24.526C143.881,27.617 144.793,31.099 144.793,34.972C144.793,38.845 143.881,42.327 142.056,45.418C140.269,48.509 137.811,50.929 134.683,52.68C131.592,54.43 128.203,55.305 124.516,55.305ZM124.516,43.742C126.974,43.742 128.873,42.96 130.214,41.396C131.554,39.795 132.225,37.653 132.225,34.972C132.225,32.253 131.554,30.112 130.214,28.548C128.873,26.947 126.974,26.146 124.516,26.146C122.021,26.146 120.103,26.947 118.762,28.548C117.422,30.112 116.751,32.253 116.751,34.972C116.751,37.653 117.422,39.795 118.762,41.396C120.103,42.96 122.021,43.742 124.516,43.742Z" fill="#0E0E0E"/>
<path d="M89.401,44.528C89.401,45.08 89.849,45.528 90.401,45.528L100.355,45.528C100.908,45.528 101.355,45.976 101.355,46.528L101.355,53.913C101.355,54.465 100.908,54.913 100.355,54.913L78,54.913C77.448,54.913 77,54.465 77,53.913L77,16.363C77,15.811 77.448,15.363 78,15.363L88.401,15.363C88.953,15.363 89.401,15.811 89.401,16.363L89.401,44.528Z" fill="#0E0E0E"/>
</svg>
