<svg width="106" height="68" viewBox="0 0 106 68" fill="none" xmlns="http://www.w3.org/2000/svg" xmlns:xlink="http://www.w3.org/1999/xlink">
<path d="M73.873,12.322L67.748,1.715C66.701,-0.099 64.083,-0.098 63.036,1.715L52.215,20.466L43.734,35.154L52.215,49.841L57.93,39.949L60.696,35.154L65.392,27.018L89.407,67.568L102.616,67.568C104.737,67.568 106.042,65.248 104.94,63.435L73.873,12.322Z" fill="#F95738"/>
<path d="M50.368,52.959L35.308,52.959L26.827,67.647L41.887,67.647L50.368,52.959Z" fill="url(#pf_0_1_399)"/>
<path d="M35.308,52.881L26.826,67.568L74.604,67.568C76.698,67.568 78.006,65.301 76.959,63.488L70.834,52.881L60.606,35.154L52.124,20.466L47.42,12.322L41.294,1.714C40.247,-0.099 37.63,-0.099 36.583,1.714L0.917,63.488C-0.13,65.301 1.179,67.568 3.273,67.568L15.524,67.568L31.477,39.95L38.939,27.018L43.643,35.154L52.124,49.841L53.872,52.881L50.368,52.881L35.308,52.881Z" fill="#FF7C63"/>
<defs>
<linearGradient id="pf_0_1_399" x1="73.036" y1="1.38" x2="34.716" y2="66.946" gradientUnits="userSpaceOnUse">
<stop stop-color="#58CAEF"/>
<stop offset="0.18" stop-color="#4EBEE8"/>
<stop offset="0.5" stop-color="#33A1D6"/>
<stop offset="0.92" stop-color="#0871B9"/>
<stop offset="1" stop-color="#0067B3"/>
</linearGradient>
</defs>
</svg>
