<svg width="40" height="42" viewBox="0 0 40 42" fill="none" xmlns="http://www.w3.org/2000/svg" xmlns:xlink="http://www.w3.org/1999/xlink">
<path d="M19,6.714L20.086,5.387L19,4.499L17.914,5.387L19,6.714ZM4.371,20.898L20.086,8.041L17.914,5.387L2.2,18.245L4.371,20.898ZM17.914,8.041L33.629,20.898L35.8,18.245L20.086,5.387L17.914,8.041Z" transform="rotate(0 19 13.143)" fill="#9095A0"/>
<path d="M16.143,28.143L16.143,26.429L14.429,26.429L14.429,28.143L16.143,28.143ZM21.857,28.143L23.571,28.143L23.571,26.429L21.857,26.429L21.857,28.143ZM17.857,36.714L17.857,28.143L14.429,28.143L14.429,36.714L17.857,36.714ZM16.143,29.857L21.857,29.857L21.857,26.429L16.143,26.429L16.143,29.857ZM20.143,28.143L20.143,36.714L23.571,36.714L23.571,28.143L20.143,28.143Z" transform="rotate(0 19 32.429)" fill="#9095A0"/>
<path d="M9.286,22.429L9.286,20.714L5.857,20.714L5.857,22.429L9.286,22.429ZM32.143,22.429L32.143,20.714L28.714,20.714L28.714,22.429L32.143,22.429ZM5.857,22.429L5.857,33.857L9.286,33.857L9.286,22.429L5.857,22.429ZM5.857,33.857C5.857,36.383 7.903,38.429 10.429,38.429L10.429,35C9.797,35 9.286,34.489 9.286,33.857L5.857,33.857ZM10.429,38.429L27.571,38.429L27.571,35L10.429,35L10.429,38.429ZM27.571,38.429C30.097,38.429 32.143,36.383 32.143,33.857L28.714,33.857C28.714,34.489 28.203,35 27.571,35L27.571,38.429ZM32.143,33.857L32.143,22.429L28.714,22.429L28.714,33.857L32.143,33.857Z" transform="rotate(0 19 29.571)" fill="#9095A0"/>
</svg>
