<svg width="42" height="42" viewBox="0 0 42 42" fill="none" xmlns="http://www.w3.org/2000/svg" xmlns:xlink="http://www.w3.org/1999/xlink">
<path d="M21,6.714L22.086,5.387L21,4.499L19.914,5.387L21,6.714ZM6.371,20.898L22.086,8.041L19.914,5.387L4.2,18.245L6.371,20.898ZM19.914,8.041L35.629,20.898L37.8,18.245L22.086,5.387L19.914,8.041Z" transform="rotate(0 21 13.143)" fill="#9095A0"/>
<path d="M18.143,28.143L18.143,26.429L16.429,26.429L16.429,28.143L18.143,28.143ZM23.857,28.143L25.571,28.143L25.571,26.429L23.857,26.429L23.857,28.143ZM19.857,36.714L19.857,28.143L16.429,28.143L16.429,36.714L19.857,36.714ZM18.143,29.857L23.857,29.857L23.857,26.429L18.143,26.429L18.143,29.857ZM22.143,28.143L22.143,36.714L25.571,36.714L25.571,28.143L22.143,28.143Z" transform="rotate(0 21 32.429)" fill="#9095A0"/>
<path d="M11.286,22.429L11.286,20.714L7.857,20.714L7.857,22.429L11.286,22.429ZM34.143,22.429L34.143,20.714L30.714,20.714L30.714,22.429L34.143,22.429ZM7.857,22.429L7.857,33.857L11.286,33.857L11.286,22.429L7.857,22.429ZM7.857,33.857C7.857,36.383 9.903,38.429 12.429,38.429L12.429,35C11.797,35 11.286,34.489 11.286,33.857L7.857,33.857ZM12.429,38.429L29.571,38.429L29.571,35L12.429,35L12.429,38.429ZM29.571,38.429C32.097,38.429 34.143,36.383 34.143,33.857L30.714,33.857C30.714,34.489 30.203,35 29.571,35L29.571,38.429ZM34.143,33.857L34.143,22.429L30.714,22.429L30.714,33.857L34.143,33.857Z" transform="rotate(0 21 29.571)" fill="#9095A0"/>
</svg>
