<svg width="32" height="32" viewBox="0 0 32 32" fill="none" xmlns="http://www.w3.org/2000/svg" xmlns:xlink="http://www.w3.org/1999/xlink">
<path d="M15,16.143L14.077,17.158L15,17.996L15.923,17.158L15,16.143ZM2.208,6.367L14.077,17.158L15.923,15.128L4.053,4.337L2.208,6.367ZM15.923,17.158L27.791,6.368L25.946,4.338L14.077,15.128L15.923,17.158Z" transform="rotate(0 14.999 10.747)" fill="#3A3A3A"/>
<path d="M4.714,6.086L25.286,6.086L25.286,3.343L4.714,3.343L4.714,6.086ZM25.286,6.086C25.791,6.086 26.2,6.495 26.2,7L28.943,7C28.943,4.98 27.306,3.343 25.286,3.343L25.286,6.086ZM26.2,7L26.2,23L28.943,23L28.943,7L26.2,7ZM26.2,23C26.2,23.505 25.791,23.914 25.286,23.914L25.286,26.657C27.306,26.657 28.943,25.02 28.943,23L26.2,23ZM25.286,23.914L4.714,23.914L4.714,26.657L25.286,26.657L25.286,23.914ZM4.714,23.914C4.209,23.914 3.8,23.505 3.8,23L1.057,23C1.057,25.02 2.694,26.657 4.714,26.657L4.714,23.914ZM3.8,23L3.8,7L1.057,7L1.057,23L3.8,23ZM3.8,7C3.8,6.495 4.209,6.086 4.714,6.086L4.714,3.343C2.694,3.343 1.057,4.98 1.057,7L3.8,7Z" transform="rotate(0 15 15)" fill="#3A3A3A"/>
</svg>
