<svg width="48" height="50" viewBox="0 0 48 50" fill="none" xmlns="http://www.w3.org/2000/svg" xmlns:xlink="http://www.w3.org/1999/xlink">
<path d="M23,42.143L21.536,43.588L23,45.07L24.464,43.588L23,42.143ZM34.657,19.857C34.657,21.463 33.979,23.552 32.745,25.937C31.533,28.277 29.894,30.697 28.218,32.907C26.548,35.11 24.872,37.063 23.612,38.468C22.983,39.169 22.459,39.731 22.095,40.115C21.914,40.308 21.772,40.455 21.676,40.554C21.628,40.603 21.592,40.64 21.569,40.664C21.557,40.676 21.548,40.685 21.543,40.691C21.54,40.693 21.538,40.695 21.537,40.696C21.537,40.697 21.536,40.697 21.536,40.697C21.536,40.698 21.536,40.697 21.536,40.698C21.536,40.697 21.536,40.697 23,42.143C24.464,43.588 24.464,43.588 24.464,43.588C24.464,43.588 24.465,43.587 24.465,43.587C24.466,43.586 24.467,43.585 24.468,43.584C24.47,43.582 24.473,43.579 24.477,43.575C24.485,43.567 24.496,43.556 24.51,43.541C24.538,43.512 24.579,43.47 24.632,43.416C24.738,43.307 24.89,43.148 25.083,42.944C25.469,42.536 26.017,41.948 26.674,41.216C27.985,39.754 29.738,37.711 31.496,35.393C33.249,33.082 35.038,30.455 36.398,27.829C37.735,25.247 38.772,22.451 38.772,19.857L34.657,19.857ZM23,42.143C24.464,40.697 24.464,40.697 24.464,40.698C24.464,40.697 24.464,40.698 24.464,40.697C24.464,40.697 24.463,40.697 24.463,40.696C24.462,40.695 24.46,40.693 24.457,40.691C24.452,40.685 24.443,40.676 24.431,40.664C24.408,40.64 24.372,40.603 24.324,40.554C24.229,40.455 24.087,40.308 23.905,40.115C23.541,39.731 23.018,39.169 22.388,38.468C21.128,37.063 19.453,35.11 17.782,32.907C16.106,30.697 14.467,28.277 13.255,25.937C12.021,23.552 11.343,21.463 11.343,19.857L7.229,19.857C7.229,22.451 8.265,25.247 9.602,27.829C10.962,30.455 12.751,33.082 14.504,35.393C16.262,37.711 18.015,39.754 19.326,41.216C19.983,41.948 20.531,42.536 20.917,42.944C21.11,43.148 21.263,43.307 21.368,43.416C21.421,43.47 21.462,43.512 21.49,43.541C21.504,43.556 21.515,43.567 21.523,43.575C21.527,43.579 21.53,43.582 21.532,43.584C21.533,43.585 21.534,43.586 21.535,43.587C21.535,43.587 21.536,43.588 21.536,43.588C21.536,43.588 21.536,43.588 23,42.143ZM11.343,19.857C11.343,12.447 17.243,8.2 23,8.2L23,4.086C15.386,4.086 7.229,9.781 7.229,19.857L11.343,19.857ZM23,8.2C28.757,8.2 34.657,12.447 34.657,19.857L38.772,19.857C38.772,9.781 30.615,4.086 23,4.086L23,8.2Z" transform="rotate(0 23 24.143)" fill="#FFFFFF"/>
<path d="M26.086,19.857C26.086,21.561 24.704,22.943 23,22.943L23,27.057C26.976,27.057 30.2,23.834 30.2,19.857L26.086,19.857ZM23,22.943C21.296,22.943 19.914,21.561 19.914,19.857L15.8,19.857C15.8,23.834 19.024,27.057 23,27.057L23,22.943ZM19.914,19.857C19.914,18.153 21.296,16.771 23,16.771L23,12.657C19.024,12.657 15.8,15.881 15.8,19.857L19.914,19.857ZM23,16.771C24.704,16.771 26.086,18.153 26.086,19.857L30.2,19.857C30.2,15.881 26.976,12.657 23,12.657L23,16.771Z" transform="rotate(0 23 19.857)" fill="#FFFFFF"/>
</svg>
