<svg width="40" height="42" viewBox="0 0 40 42" fill="none" xmlns="http://www.w3.org/2000/svg" xmlns:xlink="http://www.w3.org/1999/xlink">
<path d="M19,35.286L17.78,36.49L19,37.725L20.22,36.49L19,35.286ZM28.714,16.714C28.714,18.053 28.149,19.794 27.121,21.781C26.111,23.731 24.745,25.747 23.348,27.589C21.956,29.425 20.56,31.053 19.51,32.224C18.985,32.808 18.55,33.276 18.246,33.596C18.095,33.756 17.976,33.88 17.897,33.962C17.857,34.003 17.827,34.034 17.807,34.054C17.797,34.064 17.79,34.071 17.786,34.076C17.783,34.078 17.782,34.08 17.781,34.081C17.781,34.081 17.78,34.081 17.78,34.081C17.78,34.081 17.78,34.081 17.78,34.081C17.78,34.081 17.78,34.081 19,35.286C20.22,36.49 20.22,36.49 20.22,36.49C20.22,36.49 20.221,36.489 20.221,36.489C20.222,36.489 20.222,36.488 20.223,36.487C20.225,36.485 20.228,36.482 20.231,36.479C20.237,36.473 20.247,36.463 20.258,36.451C20.282,36.427 20.316,36.392 20.36,36.347C20.448,36.256 20.575,36.123 20.736,35.954C21.058,35.614 21.515,35.123 22.062,34.513C23.154,33.295 24.615,31.593 26.08,29.661C27.541,27.735 29.032,25.546 30.165,23.357C31.279,21.206 32.143,18.876 32.143,16.714L28.714,16.714ZM19,35.286C20.22,34.081 20.22,34.081 20.22,34.081C20.22,34.081 20.22,34.081 20.22,34.081C20.22,34.081 20.22,34.081 20.219,34.081C20.218,34.08 20.217,34.078 20.214,34.076C20.21,34.071 20.203,34.064 20.193,34.054C20.173,34.034 20.143,34.003 20.103,33.962C20.024,33.88 19.905,33.756 19.754,33.596C19.45,33.276 19.015,32.808 18.49,32.224C17.44,31.053 16.044,29.425 14.652,27.589C13.255,25.747 11.889,23.731 10.879,21.781C9.851,19.794 9.286,18.053 9.286,16.714L5.857,16.714C5.857,18.876 6.721,21.206 7.835,23.357C8.968,25.546 10.459,27.735 11.92,29.661C13.385,31.593 14.846,33.295 15.938,34.513C16.485,35.123 16.942,35.614 17.264,35.954C17.425,36.123 17.552,36.256 17.64,36.347C17.684,36.392 17.718,36.427 17.742,36.451C17.754,36.463 17.763,36.473 17.769,36.479C17.772,36.482 17.775,36.485 17.777,36.487C17.778,36.488 17.779,36.489 17.779,36.489C17.779,36.489 17.78,36.49 17.78,36.49C17.78,36.49 17.78,36.49 19,35.286ZM9.286,16.714C9.286,10.539 14.203,7 19,7L19,3.571C12.655,3.571 5.857,8.318 5.857,16.714L9.286,16.714ZM19,7C23.797,7 28.714,10.539 28.714,16.714L32.143,16.714C32.143,8.318 25.345,3.571 19,3.571L19,7Z" transform="rotate(0 19 20.286)" fill="#9095A0"/>
<path d="M21.571,16.714C21.571,18.134 20.42,19.286 19,19.286L19,22.714C22.314,22.714 25,20.028 25,16.714L21.571,16.714ZM19,19.286C17.58,19.286 16.429,18.134 16.429,16.714L13,16.714C13,20.028 15.686,22.714 19,22.714L19,19.286ZM16.429,16.714C16.429,15.294 17.58,14.143 19,14.143L19,10.714C15.686,10.714 13,13.401 13,16.714L16.429,16.714ZM19,14.143C20.42,14.143 21.571,15.294 21.571,16.714L25,16.714C25,13.401 22.314,10.714 19,10.714L19,14.143Z" transform="rotate(0 19 16.714)" fill="#9095A0"/>
</svg>
