<svg width="42" height="42" viewBox="0 0 42 42" fill="none" xmlns="http://www.w3.org/2000/svg" xmlns:xlink="http://www.w3.org/1999/xlink">
<path d="M21,35.286L19.78,36.49L21,37.725L22.22,36.49L21,35.286ZM30.714,16.714C30.714,18.053 30.149,19.794 29.121,21.781C28.111,23.731 26.745,25.747 25.348,27.589C23.956,29.425 22.56,31.053 21.51,32.224C20.985,32.808 20.55,33.276 20.246,33.596C20.095,33.756 19.976,33.88 19.897,33.962C19.857,34.003 19.827,34.034 19.807,34.054C19.797,34.064 19.79,34.071 19.786,34.076C19.783,34.078 19.782,34.08 19.781,34.081C19.781,34.081 19.78,34.081 19.78,34.081C19.78,34.081 19.78,34.081 19.78,34.081C19.78,34.081 19.78,34.081 21,35.286C22.22,36.49 22.22,36.49 22.22,36.49C22.22,36.49 22.221,36.489 22.221,36.489C22.222,36.489 22.222,36.488 22.223,36.487C22.225,36.485 22.228,36.482 22.231,36.479C22.237,36.473 22.247,36.463 22.258,36.451C22.282,36.427 22.316,36.392 22.36,36.347C22.448,36.256 22.575,36.123 22.736,35.954C23.058,35.614 23.515,35.123 24.062,34.513C25.154,33.295 26.615,31.593 28.08,29.661C29.541,27.735 31.032,25.546 32.165,23.358C33.279,21.206 34.143,18.876 34.143,16.714L30.714,16.714ZM21,35.286C22.22,34.081 22.22,34.081 22.22,34.081C22.22,34.081 22.22,34.081 22.22,34.081C22.22,34.081 22.22,34.081 22.219,34.081C22.218,34.08 22.217,34.078 22.214,34.076C22.21,34.071 22.203,34.064 22.193,34.054C22.173,34.034 22.143,34.003 22.103,33.962C22.024,33.88 21.905,33.756 21.754,33.596C21.45,33.276 21.015,32.808 20.49,32.224C19.44,31.053 18.044,29.425 16.652,27.589C15.255,25.747 13.889,23.731 12.879,21.781C11.851,19.794 11.286,18.053 11.286,16.714L7.857,16.714C7.857,18.876 8.721,21.206 9.835,23.358C10.968,25.546 12.459,27.735 13.92,29.661C15.385,31.593 16.846,33.295 17.938,34.513C18.485,35.123 18.942,35.614 19.264,35.954C19.425,36.123 19.552,36.256 19.64,36.347C19.684,36.392 19.718,36.427 19.742,36.451C19.754,36.463 19.763,36.473 19.769,36.479C19.772,36.482 19.775,36.485 19.777,36.487C19.778,36.488 19.779,36.489 19.779,36.489C19.779,36.489 19.78,36.49 19.78,36.49C19.78,36.49 19.78,36.49 21,35.286ZM11.286,16.714C11.286,10.539 16.203,7 21,7L21,3.571C14.655,3.571 7.857,8.318 7.857,16.714L11.286,16.714ZM21,7C25.797,7 30.714,10.539 30.714,16.714L34.143,16.714C34.143,8.318 27.345,3.571 21,3.571L21,7Z" transform="rotate(0 21 20.286)" fill="#9095A0"/>
<path d="M23.571,16.714C23.571,18.134 22.42,19.286 21,19.286L21,22.714C24.314,22.714 27,20.028 27,16.714L23.571,16.714ZM21,19.286C19.58,19.286 18.429,18.134 18.429,16.714L15,16.714C15,20.028 17.686,22.714 21,22.714L21,19.286ZM18.429,16.714C18.429,15.294 19.58,14.143 21,14.143L21,10.714C17.686,10.714 15,13.401 15,16.714L18.429,16.714ZM21,14.143C22.42,14.143 23.571,15.294 23.571,16.714L27,16.714C27,13.401 24.314,10.714 21,10.714L21,14.143Z" transform="rotate(0 21 16.714)" fill="#9095A0"/>
</svg>
