<svg width="50" height="50" viewBox="0 0 50 50" fill="none" xmlns="http://www.w3.org/2000/svg" xmlns:xlink="http://www.w3.org/1999/xlink">
<path d="M40.688,43.597L42.143,45.052L45.052,42.143L43.597,40.688L40.688,43.597ZM36.74,33.831L35.286,32.376L32.376,35.286L33.831,36.74L36.74,33.831ZM43.597,40.688L36.74,33.831L33.831,36.74L40.688,43.597L43.597,40.688Z" transform="rotate(0 38.714 38.714)" fill="#171A1F"/>
<path d="M33.229,21.571C33.229,28.01 28.01,33.229 21.571,33.229L21.571,37.343C30.282,37.343 37.343,30.282 37.343,21.571L33.229,21.571ZM21.571,33.229C15.133,33.229 9.914,28.01 9.914,21.571L5.8,21.571C5.8,30.282 12.861,37.343 21.571,37.343L21.571,33.229ZM9.914,21.571C9.914,15.133 15.133,9.914 21.571,9.914L21.571,5.8C12.861,5.8 5.8,12.861 5.8,21.571L9.914,21.571ZM21.571,9.914C28.01,9.914 33.229,15.133 33.229,21.571L37.343,21.571C37.343,12.861 30.282,5.8 21.571,5.8L21.571,9.914Z" transform="rotate(0 21.571 21.571)" fill="#171A1F"/>
<path d="M16.771,21.571C16.771,20.298 17.277,19.078 18.177,18.177L15.268,15.268C13.596,16.94 12.657,19.207 12.657,21.571L16.771,21.571ZM18.177,18.177C19.077,17.277 20.298,16.771 21.571,16.771L21.571,12.657C19.207,12.657 16.94,13.596 15.268,15.268L18.177,18.177Z" transform="rotate(0 18.143 18.143)" fill="#171A1F"/>
</svg>
