<svg width="24" height="40" viewBox="0 0 24 40" fill="none" xmlns="http://www.w3.org/2000/svg" xmlns:xlink="http://www.w3.org/1999/xlink">
<path d="M4.583,0.757C3.521,-0.306 1.799,-0.306 0.737,0.757C-0.326,1.819 -0.326,3.541 0.737,4.603L4.583,0.757ZM18.98,19L20.903,20.923L22.827,19L20.903,17.077L18.98,19ZM0.737,33.397C-0.326,34.459 -0.326,36.181 0.737,37.243C1.799,38.306 3.521,38.306 4.583,37.243L0.737,33.397ZM0.737,4.603L17.057,20.923L20.903,17.077L4.583,0.757L0.737,4.603ZM17.057,17.077L0.737,33.397L4.583,37.243L20.903,20.923L17.057,17.077Z" fill="#FFFFFF"/>
</svg>
