<svg width="40" height="32" viewBox="0 0 40 32" fill="none" xmlns="http://www.w3.org/2000/svg" xmlns:xlink="http://www.w3.org/1999/xlink">
<path d="M38.2,3.12C36.76,3.72 35.32,4.2 33.64,4.32C35.32,3.36 36.52,1.8 37.12,0C35.56,0.96 33.88,1.56 32.08,1.92C30.64,0.36 28.6,-0.6 26.44,-0.6C22.12,-0.6 18.52,2.88 18.52,7.32C18.52,7.92 18.64,8.52 18.76,9.12C12.16,8.76 6.4,5.64 2.44,0.84C1.72,2.04 1.36,3.36 1.36,4.8C1.36,7.56 2.8,9.96 4.84,11.4C3.52,11.4 2.32,11.04 1.24,10.44L1.24,10.56C1.24,14.4 4,17.52 7.6,18.24C6.88,18.36 6.28,18.48 5.56,18.48C5.08,18.48 4.6,18.48 4.12,18.36C5.08,21.48 8.08,23.76 11.44,23.88C8.8,26.04 5.32,27.24 1.6,27.24C1,27.24 0.28,27.24 -0.32,27.12C3.28,29.28 7.48,30.6 11.92,30.6C26.44,30.6 34.36,18.6 34.36,8.16C34.36,7.8 34.36,7.44 34.36,7.2C35.8,6 37.12,4.68 38.2,3.12Z" transform="rotate(0 18.94 15)" fill="#2EBAE8"/>
</svg>
