<svg width="104" height="104" viewBox="0 0 104 104" fill="none" xmlns="http://www.w3.org/2000/svg" xmlns:xlink="http://www.w3.org/1999/xlink">
<path d="M51,102.92C79.675,102.92 102.92,79.675 102.92,51C102.92,22.325 79.675,-0.92 51,-0.92C22.325,-0.92 -0.92,22.325 -0.92,51C-0.92,79.675 22.325,102.92 51,102.92ZM51.107,72.544C29.126,90.913 11.309,73.096 29.678,51.115C11.309,29.134 29.126,11.317 51.107,29.685C73.084,11.317 90.905,29.134 72.537,51.115C90.905,73.079 73.084,90.913 51.107,72.544ZM61.86,51.115C61.86,57.053 57.046,61.867 51.107,61.867C45.169,61.867 40.355,57.053 40.355,51.115C40.355,45.176 45.169,40.362 51.107,40.362C57.046,40.362 61.86,45.176 61.86,51.115Z" clip-rule="evenodd" fill-rule="evenodd" fill="#FF3F7F"/>
</svg>
