<svg width="30" height="36" viewBox="0 0 30 36" fill="none" xmlns="http://www.w3.org/2000/svg" xmlns:xlink="http://www.w3.org/1999/xlink">
<path d="M27.857,31.286L27.025,32.784L29.571,34.199L29.571,31.286L27.857,31.286ZM15,24.143L15.833,22.644L15,22.182L14.167,22.644L15,24.143ZM2.143,31.286L0.429,31.286L0.429,34.199L2.975,32.784L2.143,31.286ZM5,1.286L5,-0.429L5,1.286ZM28.69,29.787L15.833,22.644L14.167,25.641L27.025,32.784L28.69,29.787ZM14.167,22.644L1.31,29.787L2.975,32.784L15.833,25.641L14.167,22.644ZM3.857,31.286L3.857,4.143L0.429,4.143L0.429,31.286L3.857,31.286ZM3.857,4.143C3.857,3.84 3.978,3.549 4.192,3.335L1.767,0.91C0.91,1.768 0.429,2.93 0.429,4.143L3.857,4.143ZM4.192,3.335C4.406,3.12 4.697,3 5,3L5,-0.429C3.788,-0.429 2.625,0.053 1.767,0.91L4.192,3.335ZM5,3L25,3L25,-0.429L5,-0.429L5,3ZM25,3C25.303,3 25.594,3.12 25.808,3.335L28.232,0.91C27.375,0.053 26.212,-0.429 25,-0.429L25,3ZM25.808,3.335C26.022,3.549 26.143,3.84 26.143,4.143L29.571,4.143C29.571,2.93 29.09,1.768 28.232,0.91L25.808,3.335ZM26.143,4.143L26.143,31.286L29.571,31.286L29.571,4.143L26.143,4.143Z" transform="rotate(0 15 16.286)" fill="#9095A0"/>
</svg>
