<svg width="40" height="38" viewBox="0 0 40 38" fill="none" xmlns="http://www.w3.org/2000/svg" xmlns:xlink="http://www.w3.org/1999/xlink">
<path d="M38.2,19C38.199,15.331 37.148,11.739 35.169,8.649C33.19,5.559 30.368,3.101 27.035,1.566C23.703,0.03 20.001,-0.519 16.366,-0.015C12.732,0.488 9.318,2.022 6.528,4.406C3.738,6.789 1.69,9.922 0.626,13.433C-0.439,16.944 -0.475,20.687 0.522,24.218C1.518,27.749 3.506,30.921 6.249,33.358C8.992,35.794 12.376,37.394 16,37.967L16,24.55L11.126,24.55L11.126,19L16,19L16,14.77C16,9.958 18.867,7.3 23.252,7.3C24.692,7.32 26.128,7.445 27.55,7.675L27.55,12.4L25.128,12.4C24.716,12.345 24.296,12.384 23.9,12.514C23.505,12.643 23.143,12.86 22.843,13.148C22.542,13.436 22.311,13.788 22.165,14.178C22.019,14.568 21.963,14.986 22,15.4L22,19L27.326,19L26.474,24.55L22,24.55L22,37.967C26.517,37.253 30.63,34.95 33.6,31.473C36.569,27.996 38.201,23.573 38.2,19Z" transform="rotate(0 19 18.885)" fill="#2E6FE8"/>
</svg>
