<svg width="40" height="28" viewBox="0 0 40 28" fill="none" xmlns="http://www.w3.org/2000/svg" xmlns:xlink="http://www.w3.org/1999/xlink">
<path d="M37.84,5.32C37.84,5.32 37.48,2.68 36.28,1.48C34.84,-0.08 33.16,-0.08 32.44,-0.2C27.04,-0.56 19,-0.56 19,-0.56C19,-0.56 10.96,-0.56 5.56,-0.2C4.84,-0.08 3.16,-0.08 1.72,1.48C0.52,2.68 0.16,5.32 0.16,5.32C0.16,5.32 -0.2,8.44 -0.2,11.56L-0.2,14.44C-0.2,17.56 0.16,20.68 0.16,20.68C0.16,20.68 0.52,23.32 1.72,24.52C3.16,26.08 5.08,25.96 5.92,26.2C9.04,26.44 19,26.56 19,26.56C19,26.56 27.04,26.56 32.44,26.2C33.16,26.08 34.84,26.08 36.28,24.52C37.48,23.32 37.84,20.68 37.84,20.68C37.84,20.68 38.2,17.56 38.2,14.44L38.2,11.56C38.2,8.44 37.84,5.32 37.84,5.32ZM15.04,18.04L15.04,7.24L25.36,12.64L15.04,18.04Z" transform="rotate(0 19 13)" fill="#E82E2E"/>
</svg>
