<svg width="36" height="36" viewBox="0 0 36 36" fill="none" xmlns="http://www.w3.org/2000/svg" xmlns:xlink="http://www.w3.org/1999/xlink">
<path d="M32.6,-1L1.4,-1C0.763,-1 0.153,-0.747 -0.297,-0.297C-0.747,0.153 -1,0.763 -1,1.4L-1,32.6C-1,33.237 -0.747,33.847 -0.297,34.297C0.153,34.747 0.763,35 1.4,35L32.6,35C33.237,35 33.847,34.747 34.297,34.297C34.747,33.847 35,33.237 35,32.6L35,1.4C35,0.763 34.747,0.153 34.297,-0.297C33.847,-0.747 33.237,-1 32.6,-1ZM9.664,29.713L4.249,29.713L4.249,12.5L9.664,12.5L9.664,29.713ZM6.956,10.137C6.333,10.135 5.725,9.949 5.209,9.602C4.692,9.254 4.29,8.762 4.053,8.186C3.816,7.61 3.755,6.977 3.877,6.367C4,5.756 4.301,5.196 4.742,4.756C5.183,4.317 5.744,4.018 6.355,3.897C6.965,3.776 7.598,3.839 8.173,4.078C8.748,4.317 9.24,4.72 9.585,5.238C9.931,5.756 10.116,6.365 10.116,6.987C10.116,7.402 10.034,7.812 9.875,8.195C9.716,8.578 9.484,8.926 9.19,9.218C8.896,9.511 8.548,9.743 8.165,9.9C7.781,10.058 7.371,10.139 6.956,10.137ZM29.745,29.713L24.44,29.713L24.44,21.387C24.44,19.363 24.44,16.887 21.62,16.887C18.8,16.887 18.46,19.026 18.46,21.274L18.46,29.826L13.16,29.826L13.16,12.5L18.123,12.5L18.123,14.863L18.236,14.863C18.748,13.978 19.491,13.249 20.385,12.753C21.279,12.258 22.291,12.015 23.313,12.05C28.729,12.05 29.744,15.65 29.744,20.263L29.745,29.713Z" transform="rotate(0 17 17)" fill="#5880DE"/>
</svg>
